<mxfile host="Electron" modified="2023-08-30T11:58:13.449Z" agent="Mozilla/5.0 (Windows NT 10.0; Win64; x64) AppleWebKit/537.36 (KHTML, like Gecko) draw.io/21.5.1 Chrome/112.0.5615.204 Electron/24.6.0 Safari/537.36" etag="te8zBniNj7qyY95K1JCi" version="21.5.1" type="device">
  <diagram name="第 1 页" id="6i_aLsLNhZJZ45st5vYF">
    <mxGraphModel dx="1118" dy="802" grid="1" gridSize="10" guides="1" tooltips="1" connect="1" arrows="1" fold="1" page="1" pageScale="1" pageWidth="827" pageHeight="1169" math="0" shadow="0">
      <root>
        <mxCell id="0" />
        <mxCell id="1" parent="0" />
        <mxCell id="ZER00tfDVyUzC46bnwLJ-1" value="&lt;h1&gt;0&lt;/h1&gt;" style="whiteSpace=wrap;html=1;aspect=fixed;direction=south;" parent="1" vertex="1">
          <mxGeometry y="100" width="75" height="75" as="geometry" />
        </mxCell>
        <mxCell id="ZER00tfDVyUzC46bnwLJ-2" value="&lt;font style=&quot;font-size: 24px;&quot;&gt;&lt;b&gt;1&lt;br&gt;&lt;/b&gt;&lt;/font&gt;" style="whiteSpace=wrap;html=1;aspect=fixed;" parent="1" vertex="1">
          <mxGeometry x="75" y="100" width="75" height="75" as="geometry" />
        </mxCell>
        <mxCell id="ZER00tfDVyUzC46bnwLJ-3" value="&lt;font style=&quot;font-size: 24px;&quot;&gt;&lt;b&gt;2&lt;/b&gt;&lt;/font&gt;" style="whiteSpace=wrap;html=1;aspect=fixed;" parent="1" vertex="1">
          <mxGeometry x="150" y="100" width="75" height="75" as="geometry" />
        </mxCell>
        <mxCell id="ZER00tfDVyUzC46bnwLJ-7" value="" style="endArrow=classic;html=1;rounded=0;" parent="1" edge="1">
          <mxGeometry width="50" height="50" relative="1" as="geometry">
            <mxPoint x="38" y="209" as="sourcePoint" />
            <mxPoint x="38" y="175" as="targetPoint" />
          </mxGeometry>
        </mxCell>
        <mxCell id="ZER00tfDVyUzC46bnwLJ-8" value="" style="endArrow=classic;html=1;rounded=0;" parent="1" edge="1">
          <mxGeometry width="50" height="50" relative="1" as="geometry">
            <mxPoint x="262" y="69" as="sourcePoint" />
            <mxPoint x="262" y="100" as="targetPoint" />
          </mxGeometry>
        </mxCell>
        <mxCell id="ZER00tfDVyUzC46bnwLJ-9" value="&lt;font style=&quot;font-size: 20px;&quot;&gt;left&lt;/font&gt;" style="text;html=1;align=center;verticalAlign=middle;resizable=0;points=[];autosize=1;strokeColor=none;fillColor=none;" parent="1" vertex="1">
          <mxGeometry x="15" y="201" width="45" height="36" as="geometry" />
        </mxCell>
        <mxCell id="ZER00tfDVyUzC46bnwLJ-10" value="&lt;font style=&quot;font-size: 20px;&quot;&gt;right&lt;/font&gt;" style="text;html=1;align=center;verticalAlign=middle;resizable=0;points=[];autosize=1;strokeColor=none;fillColor=none;" parent="1" vertex="1">
          <mxGeometry x="234" y="33" width="57" height="36" as="geometry" />
        </mxCell>
        <mxCell id="ZER00tfDVyUzC46bnwLJ-11" value="middle" style="text;html=1;align=center;verticalAlign=middle;resizable=0;points=[];autosize=1;strokeColor=none;fillColor=none;" parent="1" vertex="1">
          <mxGeometry x="86" y="149" width="53" height="26" as="geometry" />
        </mxCell>
        <mxCell id="ZER00tfDVyUzC46bnwLJ-14" value="target" style="text;html=1;align=center;verticalAlign=middle;resizable=0;points=[];autosize=1;strokeColor=none;fillColor=none;" parent="1" vertex="1">
          <mxGeometry x="15" y="149" width="49" height="26" as="geometry" />
        </mxCell>
        <mxCell id="VYGDq3C754OmjCP7RVBt-10" value="&lt;span style=&quot;font-size: 24px;&quot;&gt;&lt;b&gt;3&lt;/b&gt;&lt;/span&gt;" style="whiteSpace=wrap;html=1;aspect=fixed;" vertex="1" parent="1">
          <mxGeometry x="225" y="100" width="75" height="75" as="geometry" />
        </mxCell>
        <mxCell id="VYGDq3C754OmjCP7RVBt-12" value="&lt;h1&gt;0&lt;/h1&gt;" style="whiteSpace=wrap;html=1;aspect=fixed;direction=south;" vertex="1" parent="1">
          <mxGeometry x="387" y="100" width="75" height="75" as="geometry" />
        </mxCell>
        <mxCell id="VYGDq3C754OmjCP7RVBt-13" value="&lt;font style=&quot;font-size: 24px;&quot;&gt;&lt;b&gt;1&lt;br&gt;&lt;/b&gt;&lt;/font&gt;" style="whiteSpace=wrap;html=1;aspect=fixed;" vertex="1" parent="1">
          <mxGeometry x="462" y="100" width="75" height="75" as="geometry" />
        </mxCell>
        <mxCell id="VYGDq3C754OmjCP7RVBt-14" value="&lt;font style=&quot;font-size: 24px;&quot;&gt;&lt;b&gt;2&lt;/b&gt;&lt;/font&gt;" style="whiteSpace=wrap;html=1;aspect=fixed;" vertex="1" parent="1">
          <mxGeometry x="537" y="100" width="75" height="75" as="geometry" />
        </mxCell>
        <mxCell id="VYGDq3C754OmjCP7RVBt-15" value="" style="endArrow=classic;html=1;rounded=0;" edge="1" parent="1">
          <mxGeometry width="50" height="50" relative="1" as="geometry">
            <mxPoint x="425" y="209" as="sourcePoint" />
            <mxPoint x="425" y="175" as="targetPoint" />
          </mxGeometry>
        </mxCell>
        <mxCell id="VYGDq3C754OmjCP7RVBt-17" value="&lt;font style=&quot;font-size: 20px;&quot;&gt;left&lt;/font&gt;" style="text;html=1;align=center;verticalAlign=middle;resizable=0;points=[];autosize=1;strokeColor=none;fillColor=none;" vertex="1" parent="1">
          <mxGeometry x="402" y="201" width="45" height="36" as="geometry" />
        </mxCell>
        <mxCell id="VYGDq3C754OmjCP7RVBt-18" value="&lt;font style=&quot;font-size: 20px;&quot;&gt;right&lt;/font&gt;" style="text;html=1;align=center;verticalAlign=middle;resizable=0;points=[];autosize=1;strokeColor=none;fillColor=none;" vertex="1" parent="1">
          <mxGeometry x="402" y="33" width="57" height="36" as="geometry" />
        </mxCell>
        <mxCell id="VYGDq3C754OmjCP7RVBt-19" value="middle" style="text;html=1;align=center;verticalAlign=middle;resizable=0;points=[];autosize=1;strokeColor=none;fillColor=none;" vertex="1" parent="1">
          <mxGeometry x="473" y="149" width="53" height="26" as="geometry" />
        </mxCell>
        <mxCell id="VYGDq3C754OmjCP7RVBt-20" value="target" style="text;html=1;align=center;verticalAlign=middle;resizable=0;points=[];autosize=1;strokeColor=none;fillColor=none;" vertex="1" parent="1">
          <mxGeometry x="402" y="149" width="49" height="26" as="geometry" />
        </mxCell>
        <mxCell id="VYGDq3C754OmjCP7RVBt-21" value="&lt;span style=&quot;font-size: 24px;&quot;&gt;&lt;b&gt;3&lt;/b&gt;&lt;/span&gt;" style="whiteSpace=wrap;html=1;aspect=fixed;" vertex="1" parent="1">
          <mxGeometry x="612" y="100" width="75" height="75" as="geometry" />
        </mxCell>
        <mxCell id="VYGDq3C754OmjCP7RVBt-22" value="" style="shape=flexArrow;endArrow=classic;html=1;rounded=0;exitX=1;exitY=0.5;exitDx=0;exitDy=0;entryX=0.5;entryY=1;entryDx=0;entryDy=0;" edge="1" parent="1" source="VYGDq3C754OmjCP7RVBt-10" target="VYGDq3C754OmjCP7RVBt-12">
          <mxGeometry width="50" height="50" relative="1" as="geometry">
            <mxPoint x="470" y="200" as="sourcePoint" />
            <mxPoint x="520" y="150" as="targetPoint" />
          </mxGeometry>
        </mxCell>
        <mxCell id="VYGDq3C754OmjCP7RVBt-23" value="" style="endArrow=classic;html=1;rounded=0;" edge="1" parent="1">
          <mxGeometry width="50" height="50" relative="1" as="geometry">
            <mxPoint x="424" y="69" as="sourcePoint" />
            <mxPoint x="424" y="100" as="targetPoint" />
          </mxGeometry>
        </mxCell>
        <mxCell id="VYGDq3C754OmjCP7RVBt-26" value="" style="endArrow=classic;html=1;rounded=0;entryX=0.586;entryY=-0.066;entryDx=0;entryDy=0;entryPerimeter=0;exitX=0.05;exitY=0.535;exitDx=0;exitDy=0;exitPerimeter=0;" edge="1" parent="1" source="VYGDq3C754OmjCP7RVBt-19" target="VYGDq3C754OmjCP7RVBt-20">
          <mxGeometry width="50" height="50" relative="1" as="geometry">
            <mxPoint x="430" y="150" as="sourcePoint" />
            <mxPoint x="480" y="100" as="targetPoint" />
          </mxGeometry>
        </mxCell>
      </root>
    </mxGraphModel>
  </diagram>
</mxfile>
